<?xml version="1.0" standalone="no"?>
<!DOCTYPE svg PUBLIC "-//W3C//DTD SVG 20010904//EN"
 "http://www.w3.org/TR/2001/REC-SVG-20010904/DTD/svg10.dtd">
<svg version="1.0" xmlns="http://www.w3.org/2000/svg"
 width="402.000000pt" height="402.000000pt" viewBox="0 0 402.000000 402.000000"
 preserveAspectRatio="xMidYMid meet">
<metadata>
Created by potrace 1.11, written by Peter Selinger 2001-2013
</metadata>
<g transform="translate(0.000000,402.000000) scale(0.100000,-0.100000)"
fill="#000000" stroke="none">
<path d="M1300 2000 l0 -740 160 0 160 0 2 471 3 472 119 -287 118 -286 148 0
148 0 73 178 c40 97 94 229 121 292 l47 115 1 -477 0 -478 160 0 160 0 0 740
0 740 -212 0 -213 0 -139 -340 c-77 -187 -143 -337 -147 -333 -5 6 -217 511
-276 661 -4 9 -57 12 -219 12 l-214 0 0 -740z"/>
</g>
</svg>
