<?xml version="1.0" encoding="UTF-8"?>
<svg width="292px" height="87px" viewBox="0 0 292 87" version="1.1" xmlns="http://www.w3.org/2000/svg" xmlns:xlink="http://www.w3.org/1999/xlink">
    <!-- Generator: Sketch 51.2 (57519) - http://www.bohemiancoding.com/sketch -->
    <title>Group 4</title>
    <desc>Created with Sketch.</desc>
    <defs></defs>
    <g id="Page-1" stroke="none" stroke-width="1" fill="none" fill-rule="evenodd">
        <g id="Group-4">
            <rect id="Rectangle-5" fill="#D9E4ED" x="0" y="0" width="292" height="16"></rect>
            <rect id="Rectangle-5" fill="#D9E4ED" x="0" y="23" width="292" height="16"></rect>
            <rect id="Rectangle-5" fill="#D9E4ED" x="0" y="47" width="292" height="16"></rect>
            <rect id="Rectangle-5" fill="#D9E4ED" x="0" y="71" width="292" height="16"></rect>
            <g id="Group-6" transform="translate(39.000000, 2.000000)" fill="#333333">
                <path d="M0.5,1 L9.6,1 L10.5,6.5 C12.233342,4.433323 14.3499875,2.8500055 16.85,1.75 C19.3500125,0.6499945 22.099985,0.1 25.1,0.1 C28.500017,0.1 31.5166535,0.7833265 34.15,2.15 C36.7833465,3.5166735 38.899992,5.53332 40.5,8.2 C42.233342,5.599987 44.499986,3.600007 47.3,2.2 C50.100014,0.799993 53.266649,0.1 56.8,0.1 C62.466695,0.1 66.999983,1.933315 70.4,5.6 C73.800017,9.266685 75.5,14.733297 75.5,22 L75.5,51 L63.9,51 L63.9,22 C63.9,18.266648 63.0500085,15.4833425 61.35,13.65 C59.6499915,11.8166575 57.300015,10.9 54.3,10.9 C51.299985,10.9 48.80001,11.9166565 46.8,13.95 C44.79999,15.9833435 43.8,18.66665 43.8,22 L43.8,51 L32.2,51 L32.2,22 C32.2,18.333315 31.333342,15.566676 29.6,13.7 C27.866658,11.833324 25.533348,10.9 22.6,10.9 C19.599985,10.9 17.133343,11.866657 15.2,13.8 C13.266657,15.733343 12.233334,18.299984 12.1,21.5 L12.1,51 L0.5,51 L0.5,1 Z M108.5,51.9 C104.899982,51.9 101.650014,51.3500055 98.75,50.25 C95.8499855,49.1499945 93.3833435,47.5500105 91.35,45.45 C89.3166565,43.3499895 87.7500055,40.800015 86.65,37.8 C85.5499945,34.799985 85,31.400019 85,27.6 L85,24.4 C85,20.666648 85.5499945,17.300015 86.65,14.3 C87.7500055,11.299985 89.333323,8.7500105 91.4,6.65 C93.466677,4.5499895 95.9499855,2.933339 98.85,1.8 C101.750014,0.666661 104.966649,0.1 108.5,0.1 C114.833365,0.1 119.749983,1.666651 123.25,4.8 C126.750018,7.933349 128.999995,11.999975 130,17 L117.6,17 C117.066664,15.199991 115.966675,13.733339 114.3,12.6 C112.633325,11.466661 110.533346,10.9 108,10.9 C106.533326,10.9 105.150006,11.1499975 103.85,11.65 C102.549993,12.1500025 101.400005,12.9499945 100.4,14.05 C99.399995,15.1500055 98.6166695,16.5499915 98.05,18.25 C97.4833305,19.9500085 97.2,21.999988 97.2,24.4 L97.2,27.6 C97.2,29.933345 97.499997,31.9499915 98.1,33.65 C98.700003,35.3500085 99.499995,36.7499945 100.5,37.85 C101.500005,38.9500055 102.649993,39.766664 103.95,40.3 C105.250007,40.833336 106.599993,41.1 108,41.1 C110.866681,41.1 113.049993,40.466673 114.55,39.2 C116.050008,37.933327 117.066664,36.366676 117.6,34.5 L130,34.5 C128.999995,39.766693 126.750018,43.9833175 123.25,47.15 C119.749983,50.3166825 114.833365,51.9 108.5,51.9 Z M138.5,1 L147.6,1 L148.5,6.5 C150.233342,4.433323 152.349987,2.8500055 154.85,1.75 C157.350012,0.6499945 160.099985,0.1 163.1,0.1 C166.500017,0.1 169.516653,0.7833265 172.15,2.15 C174.783346,3.5166735 176.899992,5.53332 178.5,8.2 C180.233342,5.599987 182.499986,3.600007 185.3,2.2 C188.100014,0.799993 191.266649,0.1 194.8,0.1 C200.466695,0.1 204.999983,1.933315 208.4,5.6 C211.800017,9.266685 213.5,14.733297 213.5,22 L213.5,51 L201.9,51 L201.9,22 C201.9,18.266648 201.050009,15.4833425 199.35,13.65 C197.649992,11.8166575 195.300015,10.9 192.3,10.9 C189.299985,10.9 186.80001,11.9166565 184.8,13.95 C182.79999,15.9833435 181.8,18.66665 181.8,22 L181.8,51 L170.2,51 L170.2,22 C170.2,18.333315 169.333342,15.566676 167.6,13.7 C165.866658,11.833324 163.533348,10.9 160.6,10.9 C157.599985,10.9 155.133343,11.866657 153.2,13.8 C151.266657,15.733343 150.233334,18.299984 150.1,21.5 L150.1,51 L138.5,51 L138.5,1 Z" id="mcm" stroke="#333333" stroke-width="2"></path>
                <path d="M76.25,84.45 C72.8166495,84.45 70.2750082,83.6916742 68.625,82.175 C66.9749918,80.6583257 66.016668,78.5166805 65.75,75.75 L71.85,75.75 C72.116668,77.1833405 72.5583302,78.1916637 73.175,78.775 C73.7916697,79.3583362 74.8166595,79.65 76.25,79.65 C77.9500085,79.65 79.1083302,79.4083357 79.725,78.925 C80.3416697,78.4416642 80.65,77.800004 80.65,77 C80.65,76.0999955 80.2916703,75.416669 79.575,74.95 C78.8583297,74.483331 77.966672,74.1083347 76.9,73.825 C75.833328,73.5416652 74.6833395,73.2750012 73.45,73.025 C72.2166605,72.7749987 71.066672,72.3916692 70,71.875 C68.933328,71.3583307 68.0416703,70.6416712 67.325,69.725 C66.6083297,68.8083287 66.25,67.5333415 66.25,65.9 C66.25,64.8666615 66.449998,63.9000045 66.85,63 C67.250002,62.0999955 67.8666625,61.3250032 68.7,60.675 C69.5333375,60.0249967 70.5749938,59.5083352 71.825,59.125 C73.0750063,58.7416647 74.5499915,58.55 76.25,58.55 C79.450016,58.55 81.849992,59.2916592 83.45,60.775 C85.050008,62.2583407 85.983332,64.33332 86.25,67 L80.15,67 C79.883332,65.6333265 79.4750027,64.683336 78.925,64.15 C78.3749972,63.616664 77.4833395,63.35 76.25,63.35 C74.8166595,63.35 73.8083362,63.583331 73.225,64.05 C72.6416637,64.516669 72.35,65.08333 72.35,65.75 C72.35,66.5833375 72.7083297,67.1916647 73.425,67.575 C74.1416703,67.9583352 75.033328,68.2749987 76.1,68.525 C77.166672,68.7750012 78.3166605,69.0249987 79.55,69.275 C80.7833395,69.5250012 81.933328,69.9249972 83,70.475 C84.066672,71.0250027 84.9583297,71.799995 85.675,72.8 C86.3916703,73.800005 86.75,75.1499915 86.75,76.85 C86.75,77.9500055 86.5416687,78.966662 86.125,79.9 C85.7083313,80.833338 85.0750043,81.63333 84.225,82.3 C83.3749958,82.96667 82.2916733,83.4916647 80.975,83.875 C79.6583268,84.2583352 78.0833425,84.45 76.25,84.45 Z M102,84.45 C100.199991,84.45 98.5833405,84.1750027 97.15,83.625 C95.7166595,83.0749972 94.4833385,82.2750052 93.45,81.225 C92.4166615,80.1749947 91.6250028,78.9000075 91.075,77.4 C90.5249973,75.8999925 90.25,74.2000095 90.25,72.3 L90.25,70.7 C90.25,68.7999905 90.5249973,67.1000075 91.075,65.6 C91.6250028,64.0999925 92.4166615,62.8250052 93.45,61.775 C94.4833385,60.7249947 95.7166595,59.9250027 97.15,59.375 C98.5833405,58.8249972 100.199991,58.55 102,58.55 C105.633352,58.55 108.499989,59.6666555 110.6,61.9 C112.700011,64.1333445 113.75,67.3333125 113.75,71.5 L113.75,73.45 L96.05,73.45 C96.2166675,75.5500105 96.799995,77.0583287 97.8,77.975 C98.800005,78.8916712 100.199991,79.35 102,79.35 C103.766675,79.35 105.058329,79.0416697 105.875,78.425 C106.691671,77.8083302 107.233332,77.0833375 107.5,76.25 L113.5,76.25 C113.233332,77.4166725 112.816669,78.499995 112.25,79.5 C111.683331,80.500005 110.933338,81.366663 110,82.1 C109.066662,82.833337 107.93334,83.4083312 106.6,83.825 C105.26666,84.2416687 103.733342,84.45 102,84.45 Z M102,63.65 C100.299992,63.65 98.9666715,64.0666625 98,64.9 C97.0333285,65.7333375 96.416668,67.049991 96.15,68.85 L107.85,68.85 C107.616666,66.983324 107.008338,65.650004 106.025,64.85 C105.041662,64.049996 103.700008,63.65 102,63.65 Z M118.75,59 L123.3,59 L123.75,61.8 C125.616676,59.6333225 128.199984,58.55 131.5,58.55 C134.566682,58.55 136.958325,59.4583242 138.675,61.275 C140.391675,63.0916757 141.25,65.833315 141.25,69.5 L141.25,84 L135.45,84 L135.45,69.5 C135.45,67.6666575 135.008338,66.283338 134.125,65.35 C133.241662,64.416662 132.033341,63.95 130.5,63.95 C128.699991,63.95 127.275005,64.4333285 126.225,65.4 C125.174995,66.3666715 124.616667,67.649992 124.55,69.25 L124.55,84 L118.75,84 L118.75,59 Z M156.5,84.45 C153.066649,84.45 150.525008,83.6916742 148.875,82.175 C147.224992,80.6583257 146.266668,78.5166805 146,75.75 L152.1,75.75 C152.366668,77.1833405 152.80833,78.1916637 153.425,78.775 C154.04167,79.3583362 155.06666,79.65 156.5,79.65 C158.200009,79.65 159.35833,79.4083357 159.975,78.925 C160.59167,78.4416642 160.9,77.800004 160.9,77 C160.9,76.0999955 160.54167,75.416669 159.825,74.95 C159.10833,74.483331 158.216672,74.1083347 157.15,73.825 C156.083328,73.5416652 154.933339,73.2750012 153.7,73.025 C152.46666,72.7749987 151.316672,72.3916692 150.25,71.875 C149.183328,71.3583307 148.29167,70.6416712 147.575,69.725 C146.85833,68.8083287 146.5,67.5333415 146.5,65.9 C146.5,64.8666615 146.699998,63.9000045 147.1,63 C147.500002,62.0999955 148.116662,61.3250032 148.95,60.675 C149.783337,60.0249967 150.824994,59.5083352 152.075,59.125 C153.325006,58.7416647 154.799991,58.55 156.5,58.55 C159.700016,58.55 162.099992,59.2916592 163.7,60.775 C165.300008,62.2583407 166.233332,64.33332 166.5,67 L160.4,67 C160.133332,65.6333265 159.725003,64.683336 159.175,64.15 C158.624997,63.616664 157.733339,63.35 156.5,63.35 C155.06666,63.35 154.058336,63.583331 153.475,64.05 C152.891664,64.516669 152.6,65.08333 152.6,65.75 C152.6,66.5833375 152.95833,67.1916647 153.675,67.575 C154.39167,67.9583352 155.283328,68.2749987 156.35,68.525 C157.416672,68.7750012 158.566661,69.0249987 159.8,69.275 C161.03334,69.5250012 162.183328,69.9249972 163.25,70.475 C164.316672,71.0250027 165.20833,71.799995 165.925,72.8 C166.64167,73.800005 167,75.1499915 167,76.85 C167,77.9500055 166.791669,78.966662 166.375,79.9 C165.958331,80.833338 165.325004,81.63333 164.475,82.3 C163.624996,82.96667 162.541673,83.4916647 161.225,83.875 C159.908327,84.2583352 158.333343,84.45 156.5,84.45 Z M182.5,84.45 C178.733315,84.45 175.791677,83.383344 173.675,81.25 C171.558323,79.116656 170.5,76.1333525 170.5,72.3 L170.5,70.7 C170.5,68.7999905 170.774997,67.1000075 171.325,65.6 C171.875003,64.0999925 172.674995,62.8250052 173.725,61.775 C174.775005,60.7249947 176.033326,59.9250027 177.5,59.375 C178.966674,58.8249972 180.633324,58.55 182.5,58.55 C186.266685,58.55 189.208323,59.616656 191.325,61.75 C193.441677,63.883344 194.5,66.8666475 194.5,70.7 L194.5,72.3 C194.5,74.2000095 194.225003,75.8999925 193.675,77.4 C193.124997,78.9000075 192.325005,80.1749947 191.275,81.225 C190.224995,82.2750052 188.958341,83.0749972 187.475,83.625 C185.991659,84.1750027 184.333343,84.45 182.5,84.45 Z M182.5,79.05 C184.40001,79.05 185.858328,78.5000055 186.875,77.4 C187.891672,76.2999945 188.4,74.6000115 188.4,72.3 L188.4,70.7 C188.4,68.433322 187.875005,66.7416722 186.825,65.625 C185.774995,64.5083277 184.333343,63.95 182.5,63.95 C180.599991,63.95 179.141672,64.4999945 178.125,65.6 C177.108328,66.7000055 176.6,68.3999885 176.6,70.7 L176.6,72.3 C176.6,74.566678 177.124995,76.2583277 178.175,77.375 C179.225005,78.4916722 180.666658,79.05 182.5,79.05 Z M199.5,59 L204.05,59 L204.5,61.8 C205.366671,60.733328 206.44166,59.9250027 207.725,59.375 C209.00834,58.8249972 210.433326,58.55 212,58.55 L214.5,58.55 L214.5,63.95 L212,63.95 C209.699989,63.95 208.008339,64.449995 206.925,65.45 C205.841661,66.450005 205.3,67.7999915 205.3,69.5 L205.3,84 L199.5,84 L199.5,59 Z" id="sensor"></path>
            </g>
        </g>
    </g>
</svg>