<svg height="512pt" viewBox="-16 0 512 512" width="512pt" xmlns="http://www.w3.org/2000/svg">
    <path fill="#e3e3e3" d="m15 422h180c-24.8125 0-45-20.1875-45-45 .269531-1.523438-2.363281-20.355469 16.59375-47.449219 8.769531-12.535156 13.40625-27.25 13.40625-42.550781 0-47.300781-43.339844-83.320312-91.0625-73.316406-27.289062 5.71875-50.0625 27.703125-56.664062 54.703125-5.699219 23.304687-.472657 47.148437 14.335937 65.414062 14.246094 17.566407 13.359375 42.992188 13.390625 43.199219 0 24.8125-20.1875 45-45 45zm0 0" />
    <path fill="#e3e3e3" d="m330 152v-152h-240v183.070312c4.980469-.71875 9.988281-1.070312 14.96875-1.070312 57.910156 0 105.03125 47.109375 105.03125 105 0 21.488281-6.511719 42.148438-18.828125 59.75-5.171875 7.390625-11.300781 18.378906-11.160156 28.71875.007812.550781.019531 1.242188 0 2.0625.277343 8.019531 6.886719 14.46875 14.988281 14.46875h45v120h240v-360zm-180-60h150v30h-150zm0 90v-30h150v30zm180 270c-49.628906 0-90-40.371094-90-90s40.371094-90 90-90 90 40.371094 90 90-40.371094 90-90 90zm90-210h-210v-30h210zm0 0" />
    <path fill="#e3e3e3" d="m330 302c-33.078125 0-60 26.921875-60 60s26.921875 60 60 60 60-26.921875 60-60-26.921875-60-60-60zm0 0" />
    <path fill="#e3e3e3" d="m360 8.859375v113.140625h111.289062zm0 0" />
    <path fill="#e3e3e3" d="m0 452h210v60h-210zm0 0" />
</svg>